<mxfile host="app.diagrams.net" modified="2024-05-15T07:03:50.742Z" agent="Mozilla/5.0 (Windows NT 10.0; Win64; x64) AppleWebKit/537.36 (KHTML, like Gecko) Chrome/124.0.0.0 Safari/537.36" etag="MS1fVe_V3iHpfi8nMHa8" version="24.4.0" type="github">
  <diagram name="第 1 页" id="Uyb7mkhRMvKoV3EUCWld">
    <mxGraphModel dx="1050" dy="530" grid="1" gridSize="10" guides="1" tooltips="1" connect="1" arrows="1" fold="1" page="1" pageScale="1" pageWidth="827" pageHeight="1169" math="0" shadow="0">
      <root>
        <mxCell id="0" />
        <mxCell id="1" parent="0" />
        <mxCell id="yEc16eZDOD0CSL22KtZ5-1" value="" style="verticalLabelPosition=bottom;shadow=0;dashed=0;align=center;html=1;verticalAlign=top;shape=mxgraph.electrical.logic_gates.logic_gate;operation=xor;negating=1;negSize=0.15;" vertex="1" parent="1">
          <mxGeometry x="314" y="110" width="100" height="60" as="geometry" />
        </mxCell>
      </root>
    </mxGraphModel>
  </diagram>
</mxfile>
